<svg xmlns:xlink="http://www.w3.org/1999/xlink" xmlns="http://www.w3.org/2000/svg" width="130" height="20" viewBox="0 0 130 20" fill="none">
<path d="M0 16.0271L4.05448 20.0014H20.4061V16.0708L12.2793 16.0533L4.14359 16.0271L20.4061 8.03478V-0.0012207H0V16.0271ZM12.2971 7.99111C7.85946 10.1748 4.20597 11.9567 4.17032 11.9567C4.12577 11.9654 4.09904 10.1748 4.09904 7.99111V4.01678L12.2347 4.02551H20.3615L12.2971 7.99111Z" fill="#0C00FF"/>
<path d="M24.4874 2.02525C24.4696 3.1433 24.4696 7.65045 24.4874 12.0266L24.5052 20.0014H28.6042V8.07845L26.5369 6.04325L24.4607 4.01678L32.1864 4.03425C39.832 4.06045 39.9122 4.06045 40.1528 4.24388C40.2865 4.33997 40.4825 4.53213 40.5806 4.66315C40.7677 4.89899 40.7677 4.98634 40.7944 12.4546L40.8122 20.0014H44.9113V4.06045L40.7677 -0.0012207H24.5052L24.4874 2.02525Z" fill="#0C00FF"/>
<path d="M48.9211 20.0014H53.9557L62.7776 11.0395C67.6341 6.11313 72.0539 1.61471 72.6064 1.03822L73.6222 -0.0012207H71.1361L68.6588 0.00751408L53.0647 15.8437L53.0379 7.92123L53.0201 -0.0012207H48.9211V20.0014Z" fill="#0C00FF"/>
<path d="M76.1708 2.02525C76.153 3.1433 76.153 7.65045 76.1708 12.0266L76.1887 20.0014H80.2877V8.07845L78.2204 6.04325L76.1441 4.01678L83.8699 4.03425C91.5155 4.06045 91.5957 4.06045 91.8363 4.24388C91.97 4.33997 92.166 4.53213 92.264 4.66315C92.4511 4.89899 92.4511 4.98634 92.4779 12.4546L92.4957 20.0014H96.5947V4.06045L92.4511 -0.0012207H76.1887L76.1708 2.02525Z" fill="#0C00FF"/>
<path d="M100.605 8.03491L102.681 8.05238C103.812 8.06985 108.411 8.06985 112.884 8.05238L121.011 8.03491V4.01691H104.704V-0.0010884H100.605V8.03491Z" fill="#0C00FF"/>
<path d="M100.605 12.0965V16.0271L104.659 20.0014H121.011V16.0708L113.374 16.0533C105.915 16.0271 105.719 16.0271 105.425 15.8524C105.256 15.7563 105.042 15.5642 104.935 15.4331C104.757 15.1886 104.748 15.075 104.704 11.651L104.659 8.12213L100.605 12.0965Z" fill="#0C00FF"/>
<path d="M125.11 20.0014H129.209V16.0708H125.11V20.0014Z" fill="#0C00FF"/>
</svg>