<?xml version="1.0" encoding="UTF-8"?>
<!DOCTYPE svg PUBLIC "-//W3C//DTD SVG 1.1//EN" "http://www.w3.org/Graphics/SVG/1.1/DTD/svg11.dtd">
<svg xmlns="http://www.w3.org/2000/svg" version="1.1" width="309px" height="305px" style="shape-rendering:geometricPrecision; text-rendering:geometricPrecision; image-rendering:optimizeQuality; fill-rule:evenodd; clip-rule:evenodd" xmlns:xlink="http://www.w3.org/1999/xlink">
<g><path style="opacity:0.973" fill="#ff4a3f" d="M 179.5,13.5 C 187.074,13.9683 194.241,15.9683 201,19.5C 203.971,19.1496 206.971,18.8163 210,18.5C 212.005,19.7827 214.172,20.7827 216.5,21.5C 217.192,20.9747 217.692,20.3081 218,19.5C 219.864,20.9639 222.031,21.9639 224.5,22.5C 229.627,25.9016 234.961,29.0682 240.5,32C 243.659,36.1605 246.825,40.3271 250,44.5C 251.044,46.7148 251.71,49.0481 252,51.5C 253.755,52.67 254.755,54.3367 255,56.5C 258.544,58.0394 260.544,60.7061 261,64.5C 261.219,63.062 261.719,61.7287 262.5,60.5C 272.241,74.9842 280.074,90.3175 286,106.5C 285.959,112.292 287.125,117.792 289.5,123C 288.784,128.331 289.617,133.498 292,138.5C 292.301,150.899 293.301,163.232 295,175.5C 296.128,173.655 296.628,171.655 296.5,169.5C 297.586,169.62 298.253,170.287 298.5,171.5C 297.772,173.155 297.605,174.821 298,176.5C 299.889,172.436 300.889,168.103 301,163.5C 303.265,157.086 305.098,157.086 306.5,163.5C 304.933,165.765 305.6,167.099 308.5,167.5C 308.5,169.5 308.5,171.5 308.5,173.5C 306.029,189.354 301.363,204.687 294.5,219.5C 292.711,221.033 290.711,222.033 288.5,222.5C 290.08,218.032 288.913,217.365 285,220.5C 283.97,220.164 283.47,219.497 283.5,218.5C 281.489,226.169 278.989,233.836 276,241.5C 275.07,244.362 273.403,246.695 271,248.5C 269.964,251.753 269.297,255.086 269,258.5C 264.682,259.29 260.182,260.457 255.5,262C 250.761,265.031 246.428,268.531 242.5,272.5C 240.711,274.033 238.711,275.033 236.5,275.5C 236.5,276.5 236.5,277.5 236.5,278.5C 233.986,278.754 231.652,279.587 229.5,281C 215.624,292.428 199.624,299.262 181.5,301.5C 180.558,301.392 179.725,301.059 179,300.5C 173.176,302.2 167.343,303.533 161.5,304.5C 151.167,304.5 140.833,304.5 130.5,304.5C 117.41,302.307 104.41,299.14 91.5,295C 90.6919,294.692 90.0253,294.192 89.5,293.5C 97.4206,292.353 97.4206,291.52 89.5,291C 82.9789,286.493 75.9789,282.827 68.5,280C 63.5399,276.708 59.2066,272.708 55.5,268C 52.5401,266.214 49.5401,265.547 46.5,266C 47.4506,265.282 47.6172,264.449 47,263.5C 45.836,263.165 44.5026,263.165 43,263.5C 42.0206,261.68 40.5206,260.513 38.5,260C 35.1137,255.587 31.4471,251.421 27.5,247.5C 27.7093,246.914 28.0426,246.414 28.5,246C 25.6667,243.167 22.8333,240.333 20,237.5C 9.43909,217.222 2.60575,195.888 -0.5,173.5C -0.5,165.167 -0.5,156.833 -0.5,148.5C 0.482236,147.859 1.48224,147.193 2.5,146.5C 3.35559,151.88 4.35559,157.213 5.5,162.5C 6.5,162.5 7.5,162.5 8.5,162.5C 8.21231,156.771 8.54564,151.104 9.5,145.5C 8.67504,144.614 7.67504,144.281 6.5,144.5C 6.81435,140.807 5.14768,138.473 1.5,137.5C 0.336392,131.528 0.169725,125.528 1,119.5C 2.86484,115.313 4.19817,110.979 5,106.5C 7.01501,105.158 9.18168,104.658 11.5,105C 11.8667,108.407 12.0334,111.907 12,115.5C 13.1562,116.993 13.9896,116.826 14.5,115C 17.1468,107.205 20.4802,99.7053 24.5,92.5C 24.1543,91.3044 23.6543,91.3044 23,92.5C 22.6667,91.1667 22.3333,89.8333 22,88.5C 20.7101,90.792 19.0435,92.792 17,94.5C 16.3623,93.3914 15.8623,92.2247 15.5,91C 19.4132,80.1114 24.5798,69.9447 31,60.5C 35.0356,56.2964 39.2022,52.2964 43.5,48.5C 47.3549,42.4364 51.8549,36.4364 57,30.5C 57.414,30.9574 57.914,31.2907 58.5,31.5C 64.4723,27.3907 70.4723,24.0574 76.5,21.5C 78.4033,21.6938 80.2367,21.6938 82,21.5C 87.8762,19.1464 93.7095,16.6464 99.5,14C 105.031,13.3129 110.364,11.9795 115.5,10C 127.076,9.17962 138.576,9.34629 150,10.5C 150.75,9.87424 151.584,9.37424 152.5,9C 152.167,8.66667 151.833,8.33333 151.5,8C 160.751,7.55899 169.751,8.89232 178.5,12C 179.056,12.3826 179.389,12.8826 179.5,13.5 Z M 153.5,10.5 C 153.56,9.95691 153.893,9.62358 154.5,9.5C 156.225,10.0149 157.892,10.6816 159.5,11.5C 157.519,12.0886 155.519,11.7553 153.5,10.5 Z M 179.5,13.5 C 183.024,14.7939 186.69,15.9605 190.5,17C 188.615,18.0879 186.615,18.9213 184.5,19.5C 180.657,18.8873 176.824,18.2206 173,17.5C 171.674,17.2451 170.674,16.5784 170,15.5C 168.175,16.5709 167.008,15.9042 166.5,13.5C 164.5,12.8333 162.5,12.1667 160.5,11.5C 162.167,11.1667 163.833,10.8333 165.5,10.5C 170.168,11.5971 174.834,12.5971 179.5,13.5 Z M 27.5,69.5 C 30.9001,70.9975 30.5668,72.6642 26.5,74.5C 26.1667,74.3333 25.8333,74.1667 25.5,74C 27.0368,72.8904 27.7035,71.3904 27.5,69.5 Z M 25.5,89.5 C 24.7046,85.6856 26.2046,82.6856 30,80.5C 30.6667,81.5 30.6667,82.5 30,83.5C 28.7225,85.7472 27.2225,87.7472 25.5,89.5 Z M 4.5,168.5 C 3.21214,166.965 3.21214,165.299 4.5,163.5C 5.05216,165.003 5.05216,166.669 4.5,168.5 Z M 4.5,168.5 C 5.94821,171.596 6.44821,174.929 6,178.5C 4.80108,175.274 4.30108,171.941 4.5,168.5 Z M 293.5,178.5 C 294.984,185.288 294.151,191.955 291,198.5C 291.93,191.903 292.764,185.236 293.5,178.5 Z M 288.5,204.5 C 288.231,202.571 288.731,200.905 290,199.5C 290.203,201.391 289.703,203.057 288.5,204.5 Z M 288.5,204.5 C 288.946,207.01 288.28,209.01 286.5,210.5C 286.595,208.214 287.262,206.214 288.5,204.5 Z M 286.5,210.5 C 286.585,213.649 285.585,216.316 283.5,218.5C 283.733,215.458 284.733,212.792 286.5,210.5 Z M 103.5,295.5 C 105.847,294.105 108.181,294.272 110.5,296C 108.153,296.334 105.819,296.167 103.5,295.5 Z M 111.5,297.5 C 119.725,296.682 128.058,297.182 136.5,299C 147.178,299.316 157.844,299.316 168.5,299C 166.567,299.251 164.734,299.751 163,300.5C 157.622,300.067 152.122,300.067 146.5,300.5C 134.805,299.829 123.138,298.829 111.5,297.5 Z"/></g>
<g><path style="opacity:0.004" fill="#fe4a3e" d="M 43.5,48.5 C 42.8333,47.1667 42.8333,47.1667 43.5,48.5 Z"/></g>
<g><path style="opacity:1" fill="#fffdfd" d="M 73.5,69.5 C 91.5031,69.3334 109.503,69.5001 127.5,70C 134.5,71 141.5,72 148.5,73C 162.311,79.3052 164.144,88.1386 154,99.5C 153.333,102.167 153.333,104.833 154,107.5C 156.245,112.997 159.245,117.997 163,122.5C 167.156,127.752 171.989,128.585 177.5,125C 182.083,121.088 185.917,116.588 189,111.5C 192.227,103.811 190.561,97.4774 184,92.5C 180.662,84.9309 182.495,79.0976 189.5,75C 202.042,70.1577 215.042,68.3244 228.5,69.5C 239.595,69.2185 250.595,70.0519 261.5,72C 270.553,76.2713 273.387,83.1046 270,92.5C 268.457,94.3783 266.624,95.8783 264.5,97C 255.268,98.1862 246.935,101.52 239.5,107C 222.846,122.979 207.679,140.146 194,158.5C 189.623,169.541 187.789,181.041 188.5,193C 188.73,203.18 189.23,213.347 190,223.5C 190.019,229.901 192.519,235.068 197.5,239C 203.278,241.452 207.778,245.286 211,250.5C 212.509,256.284 211.009,261.117 206.5,265C 195.963,270.802 184.63,273.802 172.5,274C 148.888,275.856 125.555,274.19 102.5,269C 94.6616,266.832 89.9949,261.832 88.5,254C 88.6148,251.268 89.4481,248.768 91,246.5C 95.6369,242.764 100.804,239.93 106.5,238C 108.81,236.363 110.31,234.196 111,231.5C 114.295,211.971 115.295,192.304 114,172.5C 111.943,165.457 108.609,159.123 104,153.5C 91.2794,137.107 77.4461,121.607 62.5,107C 56.2542,102.912 49.5875,99.5789 42.5,97C 34.6513,87.6506 36.318,80.3172 47.5,75C 56.1148,72.2782 64.7815,70.4448 73.5,69.5 Z"/></g>
<g><path style="opacity:0.689" fill="#ff493d" d="M 300.5,152.5 C 306.958,152.769 307.124,155.102 301,159.5C 300.503,157.19 300.337,154.857 300.5,152.5 Z"/></g>
<g><path style="opacity:0.031" fill="#fe403f" d="M 296.5,169.5 C 295.833,168.167 295.833,168.167 296.5,169.5 Z"/></g>
</svg>
